<?xml version="1.0" encoding="UTF-8" standalone="no"?><!DOCTYPE svg PUBLIC "-//W3C//DTD SVG 1.1//EN" "http://www.w3.org/Graphics/SVG/1.1/DTD/svg11.dtd"><svg width="100%" height="100%" viewBox="0 0 1500 1500" version="1.1" xmlns="http://www.w3.org/2000/svg" xmlns:xlink="http://www.w3.org/1999/xlink" xml:space="preserve" xmlns:serif="http://www.serif.com/" style="fill-rule:evenodd;clip-rule:evenodd;stroke-linejoin:round;stroke-miterlimit:1.41421;"><circle cx="750" cy="750" r="750" style="fill:#2e2e2e;"/><clipPath id="_clip1"><circle cx="750" cy="750" r="750"/></clipPath><g clip-path="url(#_clip1)"><g id="Calque1"><g transform="matrix(1,0,0,1,352.151,-223.79)"><clipPath id="_clip2"><path d="M230.883,1396.53l25.862,6.532c-5.421,21.24 -15.175,37.437 -29.261,48.59c-14.086,11.153 -31.304,16.73 -51.656,16.73c-21.062,0 -38.192,-4.288 -51.389,-12.864c-13.197,-8.576 -23.24,-20.996 -30.127,-37.259c-6.888,-16.264 -10.331,-33.727 -10.331,-52.389c0,-20.352 3.888,-38.104 11.664,-53.256c7.776,-15.152 18.84,-26.661 33.193,-34.526c14.353,-7.865 30.149,-11.798 47.39,-11.798c19.552,0 35.993,4.977 49.323,14.931c13.331,9.953 22.618,23.95 27.861,41.991l-25.461,5.999c-4.533,-14.22 -11.109,-24.573 -19.73,-31.061c-8.62,-6.487 -19.462,-9.731 -32.526,-9.731c-15.019,0 -27.572,3.599 -37.659,10.798c-10.087,7.198 -17.174,16.863 -21.262,28.994c-4.088,12.131 -6.132,24.639 -6.132,37.525c0,16.619 2.421,31.127 7.265,43.525c4.843,12.397 12.375,21.662 22.595,27.794c10.22,6.132 21.285,9.198 33.193,9.198c14.486,0 26.75,-4.177 36.793,-12.531c10.042,-8.354 16.841,-20.751 20.395,-37.192Zm45.724,-2.266c0,-26.217 7.288,-45.635 21.862,-58.255c12.176,-10.487 27.017,-15.73 44.524,-15.73c19.463,0 35.371,6.377 47.724,19.129c12.353,12.753 18.529,30.372 18.529,52.856c0,18.219 -2.732,32.549 -8.198,42.991c-5.465,10.442 -13.419,18.552 -23.862,24.328c-10.442,5.777 -21.84,8.665 -34.193,8.665c-19.818,0 -35.837,-6.354 -48.056,-19.062c-12.22,-12.709 -18.33,-31.016 -18.33,-54.922Zm24.662,0c0,18.129 3.955,31.704 11.864,40.725c7.909,9.02 17.863,13.53 29.86,13.53c11.909,0 21.818,-4.532 29.728,-13.597c7.909,-9.065 11.864,-22.884 11.864,-41.458c0,-17.508 -3.977,-30.772 -11.931,-39.792c-7.954,-9.02 -17.841,-13.53 -29.661,-13.53c-11.997,0 -21.951,4.488 -29.86,13.463c-7.909,8.976 -11.864,22.529 -11.864,40.659Zm227.952,70.785l0,-17.863c-8.975,14.042 -22.173,21.062 -39.591,21.062c-11.287,0 -21.662,-3.11 -31.127,-9.331c-9.465,-6.221 -16.797,-14.908 -21.996,-26.061c-5.199,-11.154 -7.798,-23.973 -7.798,-38.459c0,-14.13 2.355,-26.95 7.065,-38.459c4.71,-11.508 11.776,-20.329 21.196,-26.461c9.42,-6.132 19.951,-9.198 31.593,-9.198c8.532,0 16.13,1.8 22.796,5.399c6.665,3.599 12.086,8.287 16.263,14.064l0,-70.119l23.862,0l0,195.426l-22.263,0Zm-75.85,-70.652c0,18.13 3.821,31.682 11.464,40.658c7.643,8.976 16.663,13.464 27.061,13.464c10.487,0 19.396,-4.288 26.728,-12.864c7.332,-8.576 10.997,-21.662 10.997,-39.258c0,-19.374 -3.732,-33.593 -11.197,-42.658c-7.465,-9.065 -16.663,-13.597 -27.595,-13.597c-10.664,0 -19.573,4.354 -26.727,13.064c-7.154,8.709 -10.731,22.439 -10.731,41.191Zm232.751,25.061l24.795,3.067c-3.91,14.485 -11.153,25.727 -21.729,33.726c-10.575,7.998 -24.084,11.997 -40.525,11.997c-20.706,0 -37.125,-6.376 -49.256,-19.129c-12.131,-12.753 -18.196,-30.638 -18.196,-53.656c0,-23.817 6.132,-42.302 18.396,-55.455c12.264,-13.153 28.172,-19.729 47.723,-19.729c18.93,0 34.393,6.443 46.391,19.329c11.997,12.887 17.996,31.016 17.996,54.389c0,1.422 -0.044,3.555 -0.133,6.399l-105.578,0c0.888,15.552 5.287,27.461 13.197,35.726c7.909,8.265 17.774,12.397 29.594,12.397c8.798,0 16.307,-2.311 22.528,-6.932c6.221,-4.621 11.154,-11.997 14.797,-22.129Zm-78.783,-38.791l79.05,0c-1.067,-11.909 -4.088,-20.841 -9.065,-26.795c-7.643,-9.242 -17.552,-13.864 -29.727,-13.864c-11.02,0 -20.285,3.688 -27.794,11.065c-7.51,7.376 -11.665,17.241 -12.464,29.594Z" clip-rule="nonzero"/></clipPath><g clip-path="url(#_clip2)"><text x="70.383px" y="1465.05px" style="font-family:'ArialMT', 'Arial', sans-serif;font-size:273.01px;fill:#fff;">Code</text><g id="Base" transform="matrix(1.86693,0,0,3.23833,-419.539,-476.287)"><path d="M700,100l-597.322,0c-1.478,0 -2.678,0.692 -2.678,1.544l0,566.912c0,0.852 1.2,1.544 2.678,1.544l597.322,0l0,-570Z" style="fill:url(#_Linear3);"/></g></g></g><g transform="matrix(0.890125,0,0,0.890125,145.263,-28.1706)"><clipPath id="_clip4"><path d="M350.524,893.46l103.139,-9.017c4.884,41.33 16.25,75.24 34.097,101.729c17.848,26.49 45.558,47.906 83.131,64.251c37.574,16.344 79.844,24.516 126.811,24.516c41.706,0 78.528,-6.199 110.465,-18.598c31.938,-12.4 55.703,-29.401 71.296,-51.006c15.593,-21.605 23.389,-45.182 23.389,-70.732c0,-25.926 -7.515,-48.564 -22.544,-67.914c-15.029,-19.35 -39.828,-35.601 -74.395,-48.751c-22.169,-8.642 -71.202,-22.075 -147.1,-40.298c-75.898,-18.223 -129.064,-35.413 -159.499,-51.569c-39.452,-20.665 -68.853,-46.309 -88.203,-76.931c-19.35,-30.623 -29.026,-64.908 -29.026,-102.858c0,-41.706 11.836,-80.688 35.507,-116.947c23.671,-36.258 58.239,-63.78 103.703,-82.567c45.463,-18.787 96,-28.18 151.608,-28.18c61.245,0 115.256,9.863 162.035,29.589c46.779,19.726 82.755,48.751 107.93,87.076c25.174,38.325 38.7,81.722 40.579,130.192l-104.83,7.89c-5.636,-52.227 -24.704,-91.679 -57.205,-118.356c-32.501,-26.677 -80.501,-40.015 -144,-40.015c-66.129,0 -114.317,12.117 -144.564,36.352c-30.246,24.235 -45.369,53.448 -45.369,87.64c0,29.683 10.708,54.105 32.125,73.268c21.041,19.162 75.992,38.794 164.853,58.896c88.861,20.102 149.824,37.667 182.888,52.697c48.094,22.168 83.601,50.254 106.521,84.258c22.919,34.004 34.379,73.174 34.379,117.51c0,43.961 -12.587,85.386 -37.761,124.274c-25.174,38.889 -61.338,69.135 -108.493,90.74c-47.155,21.605 -100.227,32.407 -159.217,32.407c-74.771,0 -137.425,-10.896 -187.961,-32.689c-50.536,-21.792 -90.176,-54.575 -118.919,-98.348c-28.744,-43.773 -43.867,-93.276 -45.37,-148.509Z" clip-rule="nonzero"/></clipPath><g clip-path="url(#_clip4)"><text x="298.673px" y="1158.92px" style="font-family:'ArialMT', 'Arial', sans-serif;font-size:1154.25px;fill:#fff;">S</text><g id="Base1" serif:id="Base" transform="matrix(1.86693,0,0,3.23833,-67.3879,-500.959)"><path d="M700,100l-596.991,0c-1.661,0 -3.009,0.777 -3.009,1.735l0,566.53c0,0.958 1.348,1.735 3.009,1.735l596.991,0l0,-570Z" style="fill:url(#_Linear5);"/></g></g></g></g></g><defs><linearGradient id="_Linear3" x1="0" y1="0" x2="1" y2="0" gradientUnits="userSpaceOnUse" gradientTransform="matrix(600,0,0,600,100,385)"><stop offset="0" style="stop-color:#d74058;stop-opacity:1"/><stop offset="1" style="stop-color:#ff8c48;stop-opacity:1"/></linearGradient><linearGradient id="_Linear5" x1="0" y1="0" x2="1" y2="0" gradientUnits="userSpaceOnUse" gradientTransform="matrix(600,0,0,600,100,385)"><stop offset="0" style="stop-color:#d74058;stop-opacity:1"/><stop offset="1" style="stop-color:#ff8c48;stop-opacity:1"/></linearGradient></defs></svg>